<?xml version="1.0" encoding="utf-8"?>
<!-- Generator: Adobe Illustrator 19.0.1, SVG Export Plug-In . SVG Version: 6.00 Build 0)  -->
<svg version="1.1" id="transport_1_" xmlns="http://www.w3.org/2000/svg" xmlns:xlink="http://www.w3.org/1999/xlink" x="0px"
	 y="0px" viewBox="0 0 128 128" style="enable-background:new 0 0 128 128;" xml:space="preserve">
<style type="text/css">
	.st0{display:none;}
	.st1{display:inline;}
	.st2{fill:#141414;}
	.st3{display:inline;fill:#141414;}
</style>
<g id="row3_1_">
	<g id="ambulance" class="st0">
		<g class="st1">
			<path class="st2" d="M40.5,18.7l-2.2,5.9h0.8l0.6-1.8H42l0.6,1.8h0.9l-2.1-5.9H40.5z M39.9,22.1l0.9-2.6l0.9,2.6H39.9z M47,23.6
				l-1.7-5h-1.1v5.9h0.8v-3.5c0-0.1,0-0.4,0-0.6c0-0.3,0-0.5,0-0.7v-0.2l1.7,4.9h0.8l1.7-4.9c0,0.3,0,0.6,0,0.9c0,0.3,0,0.5,0,0.6
				v3.5h0.8v-5.9h-1.1L47,23.6z M117.1,49c-3,0-5.4,2.4-5.4,5.4v8.2c0,3,2.4,5.4,5.4,5.4c3,0,5.4-2.4,5.4-5.4v-8.2
				C122.6,51.5,120.1,49,117.1,49z M54.5,2H40.9v5.4h13.6V2z M70.8,2H57.2v5.4h13.6V2z M81.7,87.1H46.3v2.7h35.4V87.1z M87.2,2H73.5
				v5.4h13.6V2z M108.9,46.3c-2.3-20.2-8.2-32.7-8.2-32.7h-5.4V8.2H32.7v5.4h-5.4c0,0-5.6,9.9-8.2,32.7c-2.8,24.8-2.7,57.2-2.7,57.2
				h-2.7v16.3h3.5c-0.5,0.8-0.7,1.7-0.7,2.7c0,3,2.4,5.4,5.5,5.4h5.4c3,0,5.4-2.4,5.4-5.4c0-1-0.3-1.9-0.7-2.7h64.1
				c-0.5,0.8-0.7,1.7-0.7,2.7c0,3,2.4,5.4,5.4,5.4h5.4c3,0,5.4-2.4,5.4-5.4c0-1-0.3-1.9-0.7-2.7h3.5v-16.3h-2.7
				C111.7,103.5,112,72.9,108.9,46.3z M32.7,16.3h62.6v10.9H32.7V16.3z M24.5,51.7c0.7-12.3,2.7-19.1,2.7-19.1h35.4v5.4h-8.2v5.4
				h21.8v-5.4h-8.2v-5.4h32.7c0,0,2,7.1,2.7,19.1c0.7,11.1,0,21.8,0,21.8h-79C24.5,73.5,23.9,62.5,24.5,51.7z M28.6,100.8
				c-3.8,0-6.8-3-6.8-6.8c0-3.8,3-6.8,6.8-6.8c3.8,0,6.8,3,6.8,6.8C35.4,97.7,32.4,100.8,28.6,100.8z M76.3,114.4H51.8v-5.4h24.5
				V114.4z M81.7,103.5H46.3l-5.4-19.1h46.3L81.7,103.5z M99.4,100.8c-3.8,0-6.8-3-6.8-6.8c0-3.8,3-6.8,6.8-6.8s6.8,3,6.8,6.8
				C106.2,97.7,103.2,100.8,99.4,100.8z M16.3,62.6v-8.2c0-3-2.4-5.4-5.4-5.4c-3,0-5.4,2.4-5.4,5.4v8.2c0,3,2.4,5.4,5.4,5.4
				C13.9,68.1,16.3,65.6,16.3,62.6z M76.2,23.4l-2.9-4.7h-0.9v5.9h0.8v-4.7l3,4.7H77v-5.9h-0.8V23.4z M81.7,98H46.3v2.7h35.4V98z
				 M54.5,21.4c0.2-0.1,0.4-0.2,0.5-0.3c0.2-0.2,0.3-0.5,0.3-0.9c0-0.3-0.1-0.6-0.3-0.8c-0.3-0.4-0.8-0.6-1.5-0.6H51v5.9h2.5
				c0.8,0,1.3-0.2,1.7-0.7c0.2-0.3,0.4-0.6,0.4-1c0-0.4-0.1-0.8-0.4-1.1C55,21.6,54.8,21.5,54.5,21.4z M51.8,19.3h1.4
				c0.4,0,0.6,0,0.8,0.1c0.3,0.1,0.5,0.4,0.5,0.8S54.3,20.8,54,21c-0.2,0.1-0.5,0.1-0.8,0.1h-1.5V19.3z M54.5,23.4
				c-0.2,0.3-0.6,0.4-1.1,0.4h-1.7v-2.1h1.6c0.3,0,0.6,0,0.8,0.1c0.4,0.2,0.6,0.4,0.6,0.9C54.7,23,54.7,23.2,54.5,23.4z M81.7,92.6
				H46.3v2.7h35.4V92.6z M82,23.3c-0.3,0.5-0.7,0.7-1.3,0.7c-0.6,0-1.1-0.2-1.4-0.6c-0.3-0.4-0.5-1-0.5-1.7c0-0.8,0.2-1.5,0.5-1.9
				c0.3-0.4,0.8-0.6,1.4-0.6c0.5,0,0.8,0.1,1.1,0.3c0.3,0.2,0.4,0.5,0.5,0.9h0.8c0-0.5-0.3-0.9-0.7-1.3c-0.4-0.4-1-0.6-1.7-0.6
				c-0.9,0-1.5,0.3-2,0.9c-0.5,0.6-0.7,1.3-0.7,2.1c0,1.1,0.3,2,0.9,2.5c0.5,0.4,1,0.6,1.7,0.6c0.8,0,1.4-0.2,1.9-0.8
				c0.4-0.4,0.6-0.9,0.7-1.5h-0.8C82.3,22.8,82.2,23.1,82,23.3z M60.3,22.3c0,0.4-0.1,0.8-0.2,1c-0.2,0.5-0.7,0.7-1.4,0.7
				c-0.6,0-1-0.2-1.2-0.6c-0.2-0.3-0.2-0.6-0.2-1.1v-3.6h-0.8v3.3c0,0.7,0.1,1.3,0.3,1.7c0.4,0.7,1,1.1,2,1.1c1,0,1.7-0.4,2-1.1
				c0.2-0.4,0.3-0.9,0.3-1.7v-3.3h-0.8V22.3z M63.2,18.7h-0.8v5.9h3.7v-0.7h-2.9V18.7z M68.6,18.7l-2.2,5.9h0.8l0.6-1.8h2.3l0.6,1.8
				h0.9l-2.1-5.9H68.6z M68.1,22.1l0.9-2.6l0.9,2.6H68.1z M85,21.8h3.2v-0.7H85v-1.8h3.5v-0.7h-4.3v5.9h4.3v-0.7H85V21.8z"/>
		</g>
	</g>
	<g id="firefight_x5F_truck" class="st0">
		<g class="st1">
			<path class="st2" d="M109.3,24h13.3v-2.7h-13.3V24z M101.3,0h-2.7v13.3h2.7V0z M119,5.6l-1.9-1.9l-9.4,9.4l1.9,1.9L119,5.6z
				 M29.3,0h-2.7v13.3h2.7V0z M122.7,40H120c-2.9,0-5.3,2.4-5.3,5.3V32c0-2.9-2.4-5.3-5.3-5.3h-8c2.9,0,5.3-2.4,5.3-5.3
				c0-2.9-2.4-5.3-5.3-5.3h-2.7c-2.9,0-5.3,2.4-5.3,5.3c0,2.9,2.4,5.3,5.3,5.3H85.3V5.3h-8v8H48v-8h-8v21.3H29.3
				c2.9,0,5.3-2.4,5.3-5.3c0-2.9-2.4-5.3-5.3-5.3h-2.7c-2.9,0-5.3,2.4-5.3,5.3c0,2.9,2.4,5.3,5.3,5.3h-8c-2.9,0-5.3,2.4-5.3,5.3
				v13.3c0-2.9-2.4-5.3-5.3-5.3H5.3C2.4,40,0,42.4,0,45.3v13.3C0,61.6,2.4,64,5.3,64H8c2.9,0,5.3-2.4,5.3-5.3v42.7h101.3V58.7
				c0,2.9,2.4,5.3,5.3,5.3h2.7c2.9,0,5.3-2.4,5.3-5.3V45.3C128,42.4,125.6,40,122.7,40z M48,21.3h29.3v5.3H48V21.3z M21.3,40
				c0-1.5,1.2-2.7,2.7-2.7h37.3V64H24c-1.5,0-2.7-1.2-2.7-2.7V40z M34.7,88H24c-2.9,0-5.3-2.4-5.3-5.3c0-2.9,2.4-5.3,5.3-5.3h10.7
				c2.9,0,5.3,2.4,5.3,5.3C40,85.6,37.6,88,34.7,88z M82.7,90.7H45.3v-5.3h37.3V90.7z M82.7,82.7H45.3v-5.3h37.3V82.7z M104,88H93.3
				c-2.9,0-5.3-2.4-5.3-5.3c0-2.9,2.4-5.3,5.3-5.3H104c2.9,0,5.3,2.4,5.3,5.3C109.3,85.6,106.9,88,104,88z M109.3,48.5L92,37.3
				l-1.3,2.1L108,50.7L109.3,48.5v12.8c0,1.5-1.2,2.7-2.7,2.7h-40V37.3h40c1.5,0,2.7,1.2,2.7,2.7V48.5z M9.3,114.7h6.1
				c-0.5,0.8-0.7,1.7-0.7,2.7v5.3c0,2.9,2.4,5.3,5.3,5.3h13.3c2.9,0,5.3-2.4,5.3-5.3v-5.3c0-1-0.3-1.9-0.7-2.7h52.2
				c-0.5,0.8-0.7,1.7-0.7,2.7v5.3c0,2.9,2.4,5.3,5.3,5.3H108c2.9,0,5.3-2.4,5.3-5.3v-5.3c0-1-0.3-1.9-0.7-2.7h6.1V104H9.3V114.7z
				 M18.7,21.3H5.3V24h13.3V21.3z M20.3,13.1l-9.4-9.4L9,5.6l9.4,9.4L20.3,13.1z M88,44.8L105.4,56l1.3-2.2L89.3,42.7L88,44.8z"/>
		</g>
	</g>
	<g id="cycle" class="st0">
		<g class="st1">
			<path class="st2" d="M76.3,43.6L90.9,6.7l20.2,3.4V3.4L107.7,0H84.2L70.8,35.4H57.2L43.8,0c0,0-15.8,0.4-24.3,0
				c-0.9,1.2-1.7,2.5-2.6,3.8c0.4,2.1,0,6.4,0,6.4l20.2-3.4l14.6,36.8h5.4v13.6l-8.2,0v27h-5.2V67.4h-0.1c-0.6-3.1-3.3-5.4-6.6-5.4
				H27c-3.7,0-6.7,3-6.7,6.7c0,3.7,3,6.7,6.7,6.7h10.1c0,0,0,0,0,0v8.7v6.7H49v18h5.4V68.1h19.1v40.8l5.4,0V90.9h5.2v16.8
				c0,0,0,0.1,0,0.1c0,3.7,3,6.7,6.7,6.7h10.1c3.7,0,6.7-3,6.7-6.7c0-3.7-3-6.7-6.7-6.7H90.9c0,0,0,0,0,0V90.9v-6.7H79v-27l-8.2,0
				l0.1-13.6H76.3z M64,70.7c-3.7,0-6.7,3-6.7,6.7v43.8c0,3.7,3,6.7,6.7,6.7c3.7,0,6.7-3,6.7-6.7V77.5C70.7,73.8,67.7,70.7,64,70.7z
				"/>
		</g>
	</g>
	<g id="tractor" class="st0">
		<g class="st1">
			<path class="st2" d="M18.7,54.7H5.3C2.4,54.7,0,57.1,0,60v61.3c0,2.9,2.4,5.3,5.3,5.3h13.3c2.9,0,5.3-2.4,5.3-5.3V60
				C24,57.1,21.6,54.7,18.7,54.7z M122.7,54.7h-13.3c-2.9,0-5.3,2.4-5.3,5.3v61.3c0,2.9,2.4,5.3,5.3,5.3h13.3c2.9,0,5.3-2.4,5.3-5.3
				V60C128,57.1,125.6,54.7,122.7,54.7z M114.7,44V12h8V1.3h-8H104V44h-8V9.3h5.3v-8H26.7v8H32V44H0v8h32v5.3h14.1
				c-0.5,0.8-0.7,1.7-0.7,2.7v32c0,2.9,2.4,5.3,5.3,5.3h-8V84c0-2.9-2.4-5.3-5.3-5.3H32c-2.9,0-5.3,2.4-5.3,5.3v32
				c0,2.9,2.4,5.3,5.3,5.3h5.3c2.9,0,5.3-2.4,5.3-5.3v-10.7h42.7V116c0,2.9,2.4,5.3,5.3,5.3H96c2.9,0,5.3-2.4,5.3-5.3V84
				c0-2.9-2.4-5.3-5.3-5.3h-5.3c-2.9,0-5.3,2.4-5.3,5.3v13.3h-8c2.9,0,5.3-2.4,5.3-5.3V60c0-1-0.3-1.9-0.7-2.7H96V52h32v-8H114.7z
				 M74.7,89.3H53.3v-2.7h21.3V89.3z M74.7,81.3H53.3v-2.7h21.3V81.3z M74.7,73.3H53.3v-2.7h21.3V73.3z M85.3,52H42.7V9.3h42.7V52z
				 M42.7,69.3c0-3.7-3-6.7-6.7-6.7c-3.7,0-6.7,3-6.7,6.7s3,6.7,6.7,6.7C39.7,76,42.7,73,42.7,69.3z M85.3,69.3c0,3.7,3,6.7,6.7,6.7
				c3.7,0,6.7-3,6.7-6.7s-3-6.7-6.7-6.7C88.3,62.7,85.3,65.7,85.3,69.3z"/>
		</g>
	</g>
	<g id="scooter" class="st0">
		<g class="st1">
			<path class="st2" d="M36.8,40.9l-5.4,59.9c0,3,2.4,5.4,5.4,5.4h13.6V84.4c0,0,8.7-5.4,16.3-5.4c7.3,0,13.6,5.4,13.6,5.4v21.8H94
				c3,0,5.4-2.4,5.4-5.4L94,40.9c0-3-2.4-5.4-5.4-5.4H65.4H42.2C39.2,35.4,36.8,37.8,36.8,40.9z M65.4,62.6c3.8,0,6.8,3,6.8,6.8
				c0,3.8-3,6.8-6.8,6.8s-6.8-3-6.8-6.8C58.6,65.7,61.6,62.6,65.4,62.6z M99.4,10.9v2.7H88.5l-6.6-2.2C79.4,4.7,72.9,0,65.4,0
				c-7.6,0-14,4.7-16.5,11.4l-6.6,2.2H28.6v-2.7l-16.3,2.7v8.2l16.3,2.7v-2.7h13.6l9.4,7c3.2,4,8.2,6.6,13.8,6.6
				c5.6,0,10.5-2.6,13.8-6.6l9.4-7h10.9v2.7l16.3-2.7v-8.2L99.4,10.9z M65.4,27.2c-5.3,0-9.5-4.3-9.5-9.5c0-5.3,4.3-9.5,9.5-9.5
				c5.3,0,9.5,4.3,9.5,9.5C74.9,23,70.6,27.2,65.4,27.2z M69.4,84.4h-8.2c-3,0-5.4,2.4-5.4,5.4v32.7c0,3,2.4,5.4,5.4,5.4h8.2
				c3,0,5.4-2.4,5.4-5.4V89.9C74.9,86.9,72.5,84.4,69.4,84.4z"/>
		</g>
	</g>
</g>
<g id="row2_1_">
	<g id="ship" class="st0">
		<g class="st1">
			<path class="st2" d="M107.6,27.6c0-3.2-2.6-5.8-5.8-5.8H96V7.3c0-3.2-2.6-5.8-5.8-5.8H37.8c-3.2,0-5.8,2.6-5.8,5.8v14.5h-5.8
				c-3.2,0-5.8,2.6-5.8,5.8v34.9l45.1-9.6l42.2,9.6V27.6z M52.4,50.9H34.9c-3.2,0-5.8-2.6-5.8-5.8v-8.7c0-3.2,2.6-5.8,5.8-5.8h17.5
				c3.2,0,2.9,2.6,2.9,5.8v8.7C55.3,48.3,55.6,50.9,52.4,50.9z M40.7,18.9v-8.7h46.5v8.7H40.7z M98.9,45.1c0,3.2-2.6,5.8-5.8,5.8
				H75.6c-3.2,0-2.9-2.6-2.9-5.8v-8.7c0-3.2-0.3-5.8,2.9-5.8h17.5c3.2,0,5.8,2.6,5.8,5.8V45.1z M64,125.3V53.8c0,0-38.9,8.3-64,14.5
				C0,95.7,51.1,119.7,64,125.3z M45.7,68.6c2-0.9,4.7,1.6,6,5.5c1.3,3.9,0.7,7.8-1.4,8.7c-2,0.9-4.7-1.6-6-5.5S43.6,69.5,45.7,68.6
				z M66.9,54.4v72.1c0,0,61.1-26.9,61.1-58.2C121.6,66.3,78.6,57,66.9,54.4z M87.1,76.2c-0.5,4-2.8,7-5.2,6.7
				c-2.3-0.3-3.8-3.8-3.3-7.9c0.5-4,2.8-7,5.2-6.7C86.2,68.7,87.7,72.2,87.1,76.2z"/>
		</g>
	</g>
	<g id="chopper" class="st0">
		<g class="st1">
			<path class="st2" d="M87.8,20.1v-2.5H128v-5H87.8V10H70.3V5H57.7v7.5h0V10H40.2v2.5H0v5h40.2v2.5h17.6v-2.5h0v5.7
				c-17.1,3.3-30.1,19.7-30.1,39.5c0,9.5,3,18.2,8,25.1H25.1l-3.4,25h-4c-2.2,0-4,1.8-4,4.1v2c0,2.2,1.8,4.1,4,4.1h12.1
				c2.2,0,4-1.8,4-4.1v-2c0-2.2-1.8-4.1-4-4.1h-2.1l2.5-17.4h12.5l-0.1-0.2c6,4.9,13.4,7.7,21.4,7.7c7.9,0,15.6-2.8,22-7.5h14.6
				l5,17.4h-4.1c-2.3,0-4.1,1.8-4.1,4.1v2c0,2.2,1.8,4.1,4.1,4.1h12.3c2.3,0,4.1-1.8,4.1-4.1v-2c0-2.2-1.8-4.1-4.1-4.1h-3l-5.1-25
				H93.9c5.5-6.9,9-15.6,9-25.1c0-19.8-15-36.3-32.6-39.5v-3.1H87.8z M65.3,90.3c-5.5,0-10-2.8-10-6.3c0-3.5,4.5-6.3,10-6.3
				c5.5,0,10,2.8,10,6.3C75.3,87.5,70.8,90.3,65.3,90.3z M95.4,53.5c0,12.7-14.2,14.2-30.1,14.2c-15.9,0-30.1-1.5-30.1-14.2
				c0-9.8,18.5-23.9,28.8-23.4C79.1,30.8,95.4,43.5,95.4,53.5z"/>
		</g>
	</g>
	<g id="car" class="st0">
		<g class="st1">
			<path class="st2" d="M8.3,97.2l0,9.9c0,2.2,2,4,4.5,4h16c2.5,0,4.5-1.8,4.5-4l0-9.9H8.3z M94.2,97.2v9.9c0,2.2,2,4,4.4,4h16.1
				c2.5,0,4.5-1.8,4.5-4l0-9.9H94.2z M113.5,46.9h8.2c2.4,0,4.3-1.9,4.3-4.3v-4.3c0-2.4-1.9-4.3-4.3-4.3h-8.6
				c-2.4,0-4.3,1.9-4.3,4.3v3.5l-18-24.9H34.5L19.4,44.6l-1,0.7c0.6-0.7,1-1.7,1-2.8v-4.3c0-2.4-1.9-4.3-4.3-4.3H6.5
				c-2.4,0-4.3,1.9-4.3,4.3v4.3c0,2.4,1.9,4.3,4.3,4.3h8.6c0.5,0,1.1-0.1,1.5-0.3L0,58.5v33.4h2.8v5.4h121.9v-5.4h2.8V58.5
				L113.5,46.9z M30.5,80.1c0,1.8-1.4,3.3-3.2,3.3H11.5c-1.8,0-3.2-1.5-3.2-3.3v-10c0-1.8,1.4-3.3,3.2-3.3l15.8,6.6
				c1.7,0.7,3.2,1.5,3.2,3.3V80.1z M59.5,44.6H34.6c-0.8,0-1.4,0.6-1.4,1.4c0,0.8,0.6,1.4,1.4,1.4h8.7l-10.5,5.5h-3.6
				c-2.4,0-4.3-1.9-4.3-4.3l10-19.1c1.5-2.1,1.9-4.3,4.3-4.3h49.1c2.4,0,3.1,2.1,4.2,4.3l12.8,19.1c0,2.4-1.9,4.3-4.3,4.3H38.7
				l10-5.3c0.2-0.1,0.3-0.2,0.4-0.3h10.4c0.8,0,1.4-0.6,1.4-1.4C60.9,45.2,60.3,44.6,59.5,44.6z M78.1,86.2H49.3
				c-1.2,0-2.2-1.3-2.2-2.8c0-1.5,1-2.8,2.2-2.8h28.9c1.2,0,2.2,1.3,2.2,2.8C80.3,84.9,79.4,86.2,78.1,86.2z M81,77.9H46.4
				c-1.2,0-2.1-1.2-2.1-2.8c0-1.5,1-2.8,2.1-2.8H81c1.2,0,2.1,1.2,2.1,2.8C83.1,76.6,82.1,77.9,81,77.9z M119.1,80.1
				c0,1.8-1.4,3.3-3.2,3.3h-15.8c-1.8,0-3.2-1.5-3.2-3.3v-3.3c0-1.8,1.4-2.6,3.2-3.3l15.8-6.6c1.7,0,3.2,1.5,3.2,3.3V80.1z"/>
		</g>
	</g>
	<g id="bus" class="st0">
		<path class="st3" d="M123.3,29.6V17.8l-11.9,0v-1.8c0-2.9-2.4-5.3-5.3-5.3H21.9c-2.9,0-5.3,2.4-5.3,5.3v84.3
			c0,2.9,2.4,5.3,5.3,5.3h1.8v10.3c0,0.8,0.7,1.5,1.7,1.5h13.3c0.9,0,1.7-0.7,1.7-1.5v-10.3h47.4v10.3c0,0.8,0.7,1.5,1.7,1.5h13.3
			c0.9,0,1.7-0.7,1.7-1.5v-10.3h1.8c2.9,0,5.3-2.4,5.3-5.3V18.2l0,4.4h7.1v7.1c0,0-2.4,0.1-2.4,2.4v19c0,1.5,6.7,2.3,6.7,2.3
			c1.5,0,5.1-0.8,5.1-2.3V32C128,29.2,123.3,29.6,123.3,29.6z M45.9,17.6c0.8-0.8,1.9-1.3,3.1-1.3h30c2.4,0,4.3,1.9,4.3,4.3
			c0,1.2-0.5,2.3-1.3,3.1C81.3,24.5,80.2,25,79,25H49c-2.4,0-4.3-1.9-4.3-4.3C44.7,19.5,45.2,18.4,45.9,17.6z M40.3,88.9
			c0,2.6-2.1,4.7-4.7,4.7h-9.5c-2.6,0-4.7-2.1-4.7-4.7v-2.4c0-2.6,2.1-4.7,4.7-4.7h9.5c2.6,0,4.7,2.1,4.7,4.7V88.9z M26.3,74.6
			c-1.4,0-2.6-1.2-2.6-2.6V32.2c0-1.4,1.2-2.6,2.6-2.6h35.3v45H26.3z M54.5,99.4c0,0.7-0.5,1.4-1.2,1.4c-0.6,0-1.2-0.6-1.2-1.4V83.2
			c0-0.8,0.5-1.4,1.2-1.4c0.6,0,1.2,0.6,1.2,1.4V99.4z M59.2,99.4c0,0.7-0.5,1.4-1.2,1.4c-0.6,0-1.2-0.6-1.2-1.4V83.2
			c0-0.8,0.5-1.4,1.2-1.4c0.7,0,1.2,0.6,1.2,1.4V99.4z M64,99.4c0,0.7-0.5,1.4-1.2,1.4c-0.7,0-1.2-0.6-1.2-1.4V83.2
			c0-0.8,0.5-1.4,1.2-1.4c0.6,0,1.2,0.6,1.2,1.4V99.4z M68.7,99.4c0,0.7-0.5,1.4-1.2,1.4c-0.6,0-1.2-0.6-1.2-1.4V83.2
			c0-0.8,0.5-1.4,1.2-1.4c0.6,0,1.2,0.6,1.2,1.4V99.4z M73.5,99.4c0,0.7-0.5,1.4-1.2,1.4c-0.7,0-1.2-0.6-1.2-1.4V83.2
			c0-0.8,0.5-1.4,1.2-1.4c0.6,0,1.2,0.6,1.2,1.4V99.4z M66.4,74.6v-45h35.2c1.5,0,2.6,1.2,2.6,2.6V72c0,1.4-1.2,2.6-2.6,2.6H66.4z
			 M106.6,88.9c0,2.6-2.1,4.7-4.7,4.7h-9.5c-2.6,0-4.7-2.1-4.7-4.7v-2.4c0-2.6,2.1-4.7,4.7-4.7h9.5c2.6,0,4.7,2.1,4.7,4.7V88.9z
			 M16.6,22.5l0-4.8l-11.9,0v11.8c0,0-4.7-0.4-4.7,2.4v19c0,1.5,3.6,2.3,5.1,2.3c0,0,6.7-0.8,6.7-2.3V32c0-2.3-2.4-2.4-2.4-2.4v-7.1
			H16.6z"/>
	</g>
	<g id="truck" class="st0">
		<g class="st1">
			<path class="st2" d="M122.9,47.7v-10h-15V2.5H17.6v35.2H5v10l2.5,0v-7.5h10v40.2l5,0V30.1h22.6h30.1h27.6v50.2l5,0V40.2h12.5v7.5
				l2,0h-7v15H128v-15H122.9z M0,62.7h12.6v-15H5H0V62.7z M112.9,82.8h-12.5V32.6H25.1v50.2H10l0,22.4H4.9L5,115.5h10v5.7
				c0,2.4,1.7,4.3,3.8,4.3h7.5c2.1,0,3.8-1.9,3.8-4.3v-5.7h60.3v5.7c0,2.4,1.7,4.3,3.8,4.3h7.5c2.1,0,3.8-1.9,3.8-4.3v-5.7h10
				l0.2-10.3h-2.7L112.9,82.8z M22.6,100.4c-2.8,0-5-2.2-5-5c0-2.8,2.2-5,5-5c2.8,0,5,2.2,5,5C27.6,98.1,25.4,100.4,22.6,100.4z
				 M32.6,40.2h27.6v20.1H32.6V40.2z M87.8,98.8c0,2.2-1.8,4.1-3.9,4.1H39.1c-2.2,0-3.9-1.8-3.9-4.1v-1h52.7V98.8z M87.8,92.9H35.1
				v-5.1h52.7V92.9z M87.8,82.9H35.1v-5h52.7V82.9z M87.8,72.8H35.1v-0.9c0-2.2,1.8-4.1,3.9-4.1h44.8c2.2,0,3.9,1.8,3.9,4.1V72.8z
				 M92.9,60.2H65.3V40.2h27.6V60.2z M100.4,100.4c-2.8,0-5-2.2-5-5c0-2.8,2.2-5,5-5c2.8,0,5,2.2,5,5
				C105.4,98.1,103.1,100.4,100.4,100.4z"/>
		</g>
	</g>
</g>
<g id="row1_1_">
	<g id="taxi" class="st0">
		<g class="st1">
			<path class="st2" d="M115.5,53.1h-2.2h-0.9l0-0.1c0.3,0,0.6,0.1,0.9,0.1c0,0,14.7-2.5,14.7-6.2c0-3.4-6.8-9.4-10.7-9.4
				c0,0-4.6,2.3-7.8,4.9L103,18.7H87.4v-7.1c0-3-2.5-5.4-5.5-5.4H46.1c-3,0-5.5,2.4-5.5,5.4v7.1H25l-6.5,22.9
				c-3.1-2.3-6.8-4.2-6.8-4.2C7.7,37.5,1,43.4,1,46.8c0,3.4,12,5.8,14.3,6.2l0,0.1h-2.8C5.2,53.1,0,59,0,62.4v34.3
				c0,3.4,2.8,6.2,6.2,6.2h0.8c-0.5,0.9-0.8,2-0.8,3.1v9.4c0,3.4,2.8,6.2,6.2,6.2H25c3.5,0,6.3-2.8,6.3-6.2v-9.4
				c0-1.1-0.3-2.2-0.8-3.1h67.2c-0.5,0.9-0.8,2-0.8,3.1v9.4c0,3.4,2.8,6.2,6.2,6.2h12.5c3.5,0,6.2-2.8,6.2-6.2v-9.4
				c0-1.1-0.3-2.2-0.8-3.1h0.8c3.5,0,6.2-2.8,6.2-6.2V62.4C128,59,122.8,53.1,115.5,53.1z M18.7,81.2c-5.2,0-9.4-4.2-9.4-9.4
				c0-5.2,4.2-9.4,9.4-9.4c5.2,0,9.4,4.2,9.4,9.4C28.1,77,23.9,81.2,18.7,81.2z M84.3,93.7H43.7c-3.5,0-6.2-2.8-6.2-6.2
				s2.8-6.2,6.2-6.2h40.6c3.5,0,6.2,2.8,6.2,6.2S87.7,93.7,84.3,93.7z M26.8,56.2c0,0,4.9-26,8.3-26h57.5c3.4,0,8.3,26,8.3,26H26.8z
				 M109.3,81.2c-5.2,0-9.4-4.2-9.4-9.4c0-5.2,4.2-9.4,9.4-9.4c5.2,0,9.4,4.2,9.4,9.4C118.6,77,114.4,81.2,109.3,81.2z"/>
		</g>
	</g>
	<g id="jeep" class="st0">
		<path class="st3" d="M126,53.1V36.8h-13.6l-4,4l-4.9-23c0-3-2.4-5.4-5.4-5.4H30c-3,0-5.4,2.4-5.4,5.4l-4.7,23.2l-4.2-4.2H2v16.3
			l10.9,5.5l4.7-7.1l-1,5.1C9.9,60.5,5.4,67.9,5.4,76.3c0,5.9,2.3,11.4,6,15.5c-1.9,0.8-3.2,2.7-3.2,5v13.6c0,3,2.4,5.4,5.4,5.4H30
			c3,0,5.4-2.4,5.4-5.4V99.4h57.2v10.9c0,3,2.4,5.4,5.4,5.4h16.3c3,0,5.4-2.4,5.4-5.4V96.7c0-1.5-0.6-2.8-1.6-3.8
			c4.3-4.2,7-10.1,7-16.6c0-9.4-5.7-17.6-13.8-21.2l-0.8-3.7l7.1,7.1L126,53.1z M24.5,83.1c-6,0-10.9-4.9-10.9-10.9
			c0-6,4.9-10.9,10.9-10.9c6,0,10.9,4.9,10.9,10.9C35.4,78.2,30.5,83.1,24.5,83.1z M43.6,88.5c0,1.5-1.2,2.7-2.7,2.7
			c-1.5,0-2.7-1.2-2.7-2.7V64c0-1.5,1.2-2.7,2.7-2.7c1.5,0,2.7,1.2,2.7,2.7V88.5z M51.7,88.5c0,1.5-1.2,2.7-2.7,2.7
			c-1.5,0-2.7-1.2-2.7-2.7V64c0-1.5,1.2-2.7,2.7-2.7c1.5,0,2.7,1.2,2.7,2.7V88.5z M59.9,88.5c0,1.5-1.2,2.7-2.7,2.7
			c-1.5,0-2.7-1.2-2.7-2.7V64c0-1.5,1.2-2.7,2.7-2.7c1.5,0,2.7,1.2,2.7,2.7V88.5z M68.1,88.5c0,1.5-1.2,2.7-2.7,2.7
			c-1.5,0-2.7-1.2-2.7-2.7V64c0-1.5,1.2-2.7,2.7-2.7c1.5,0,2.7,1.2,2.7,2.7V88.5z M76.3,88.5c0,1.5-1.2,2.7-2.7,2.7
			c-1.5,0-2.7-1.2-2.7-2.7V64c0-1.5,1.2-2.7,2.7-2.7c1.5,0,2.7,1.2,2.7,2.7V88.5z M84.4,88.5c0,1.5-1.2,2.7-2.7,2.7
			c-1.5,0-2.7-1.2-2.7-2.7V64c0-1.5,1.2-2.7,2.7-2.7c1.5,0,2.7,1.2,2.7,2.7V88.5z M92.6,88.5c0,1.5-1.2,2.7-2.7,2.7
			c-1.5,0-2.7-1.2-2.7-2.7V64c0-1.5,1.2-2.7,2.7-2.7c1.5,0,2.7,1.2,2.7,2.7V88.5z M68.1,50.4c-19.4,0-40.8,2.7-40.8,2.7l5.4-27.2
			c0-1.5,1.2-2.7,2.7-2.7h57.2c1.5,0,2.7,1.2,2.7,2.7l5.4,27.2C100.8,53.1,85.3,50.4,68.1,50.4z M117.1,72.2c0,6-4.9,10.9-10.9,10.9
			c-6,0-10.9-4.9-10.9-10.9c0-6,4.9-10.9,10.9-10.9C112.2,61.3,117.1,66.2,117.1,72.2z"/>
	</g>
	<g id="school_x5F_bus" class="st0">
		<path class="st3" d="M7.4,16c-1.4,0-2.5,1.1-2.5,2.5v6.8h4.9v-4.3h7.4l0-4.9H7.4z M17.2,48H9.8v-2.5h2.5c1.3,0,2.4-1.1,2.4-2.5
			V25.8c0-1.4-1.1-2.5-2.4-2.5H2.5c-1.4,0-2.5,1.1-2.5,2.5v17.2c0,1.4,1.1,2.5,2.5,2.5h2.4v4.9c0,1.4,1.1,2.5,2.5,2.5h9.8L17.2,48z
			 M43.1,33.2L27,43.5l1.2,2l16.1-10.3L43.1,33.2z M2.5,99.7v9.8h7.4v7.4c0,2.7,2.2,4.9,4.9,4.9h4.9c2.7,0,4.9-2.2,4.9-4.9v-7.4
			h78.8v7.4c0,2.7,2.2,4.9,4.9,4.9h4.9c2.7,0,4.9-2.2,4.9-4.9v-7.4h7.4v-9.8H2.5z M25.8,75.1c-4.8,0-8.6,3.9-8.6,8.6
			s3.9,8.6,8.6,8.6s8.6-3.8,8.6-8.6S30.6,75.1,25.8,75.1z M25.8,87.4c-2,0-3.7-1.6-3.7-3.7c0-2,1.6-3.7,3.7-3.7c2,0,3.7,1.7,3.7,3.7
			C29.5,85.7,27.9,87.4,25.8,87.4z M80,84.9H48c-0.7,0-1.2,0.6-1.2,1.2c0,0.7,0.5,1.2,1.2,1.2h32c0.7,0,1.2-0.5,1.2-1.2
			C81.2,85.5,80.7,84.9,80,84.9z M80,80H48c-0.7,0-1.2,0.6-1.2,1.2c0,0.7,0.5,1.2,1.2,1.2h32c0.7,0,1.2-0.5,1.2-1.2
			C81.2,80.6,80.7,80,80,80z M80,75.1H48c-0.7,0-1.2,0.5-1.2,1.2c0,0.7,0.5,1.2,1.2,1.2h32c0.7,0,1.2-0.6,1.2-1.2
			C81.2,75.6,80.7,75.1,80,75.1z M102.1,75.1c-4.7,0-8.6,3.9-8.6,8.6s3.9,8.6,8.6,8.6c4.8,0,8.6-3.8,8.6-8.6S106.9,75.1,102.1,75.1z
			 M102.1,87.4c-2,0-3.7-1.6-3.7-3.7c0-2,1.7-3.7,3.7-3.7c2,0,3.7,1.7,3.7,3.7C105.8,85.7,104.2,87.4,102.1,87.4z M102.1,75.1
			c-4.7,0-8.6,3.9-8.6,8.6s3.9,8.6,8.6,8.6c4.8,0,8.6-3.8,8.6-8.6S106.9,75.1,102.1,75.1z M102.1,87.4c-2,0-3.7-1.6-3.7-3.7
			c0-2,1.7-3.7,3.7-3.7c2,0,3.7,1.7,3.7,3.7C105.8,85.7,104.2,87.4,102.1,87.4z M48,77.5h32c0.7,0,1.2-0.6,1.2-1.2
			c0-0.7-0.5-1.2-1.2-1.2H48c-0.7,0-1.2,0.5-1.2,1.2C46.8,77,47.3,77.5,48,77.5z M80,80H48c-0.7,0-1.2,0.6-1.2,1.2
			c0,0.7,0.5,1.2,1.2,1.2h32c0.7,0,1.2-0.5,1.2-1.2C81.2,80.6,80.7,80,80,80z M80,84.9H48c-0.7,0-1.2,0.6-1.2,1.2
			c0,0.7,0.5,1.2,1.2,1.2h32c0.7,0,1.2-0.5,1.2-1.2C81.2,85.5,80.7,84.9,80,84.9z M25.8,75.1c-4.8,0-8.6,3.9-8.6,8.6
			s3.9,8.6,8.6,8.6s8.6-3.8,8.6-8.6S30.6,75.1,25.8,75.1z M25.8,87.4c-2,0-3.7-1.6-3.7-3.7c0-2,1.6-3.7,3.7-3.7c2,0,3.7,1.7,3.7,3.7
			C29.5,85.7,27.9,87.4,25.8,87.4z M113.2,67.7h-7.6l-12.1-7.4H36.9l-14.4,7.4h-7.8c-2.7,0-7.4,4.7-7.4,7.4v22.2h113.2V75.1
			C120.6,72.4,115.9,67.7,113.2,67.7z M25.8,94.8c-6.1,0-11.1-4.9-11.1-11.1c0-6.1,5-11.1,11.1-11.1s11.1,5,11.1,11.1
			C36.9,89.8,32,94.8,25.8,94.8z M86.2,89.8c0,1.4-1.1,2.5-2.5,2.5H44.3c-1.4,0-2.5-1.1-2.5-2.5V72.6c0-1.4,1.1-2.5,2.5-2.5h39.4
			c1.4,0,2.5,1.1,2.5,2.5V89.8z M102.1,94.8c-6.1,0-11.1-4.9-11.1-11.1c0-6.1,5-11.1,11.1-11.1c6.1,0,11.1,5,11.1,11.1
			C113.2,89.8,108.3,94.8,102.1,94.8z M102.1,75.1c-4.7,0-8.6,3.9-8.6,8.6s3.9,8.6,8.6,8.6c4.8,0,8.6-3.8,8.6-8.6
			S106.9,75.1,102.1,75.1z M102.1,87.4c-2,0-3.7-1.6-3.7-3.7c0-2,1.7-3.7,3.7-3.7c2,0,3.7,1.7,3.7,3.7
			C105.8,85.7,104.2,87.4,102.1,87.4z M80,75.1H48c-0.7,0-1.2,0.5-1.2,1.2c0,0.7,0.5,1.2,1.2,1.2h32c0.7,0,1.2-0.6,1.2-1.2
			C81.2,75.6,80.7,75.1,80,75.1z M80,80H48c-0.7,0-1.2,0.6-1.2,1.2c0,0.7,0.5,1.2,1.2,1.2h32c0.7,0,1.2-0.5,1.2-1.2
			C81.2,80.6,80.7,80,80,80z M80,84.9H48c-0.7,0-1.2,0.6-1.2,1.2c0,0.7,0.5,1.2,1.2,1.2h32c0.7,0,1.2-0.5,1.2-1.2
			C81.2,85.5,80.7,84.9,80,84.9z M25.8,75.1c-4.8,0-8.6,3.9-8.6,8.6s3.9,8.6,8.6,8.6s8.6-3.8,8.6-8.6S30.6,75.1,25.8,75.1z
			 M25.8,87.4c-2,0-3.7-1.6-3.7-3.7c0-2,1.6-3.7,3.7-3.7c2,0,3.7,1.7,3.7,3.7C29.5,85.7,27.9,87.4,25.8,87.4z M25.8,75.1
			c-4.8,0-8.6,3.9-8.6,8.6s3.9,8.6,8.6,8.6s8.6-3.8,8.6-8.6S30.6,75.1,25.8,75.1z M25.8,87.4c-2,0-3.7-1.6-3.7-3.7
			c0-2,1.6-3.7,3.7-3.7c2,0,3.7,1.7,3.7,3.7C29.5,85.7,27.9,87.4,25.8,87.4z M80,84.9H48c-0.7,0-1.2,0.6-1.2,1.2
			c0,0.7,0.5,1.2,1.2,1.2h32c0.7,0,1.2-0.5,1.2-1.2C81.2,85.5,80.7,84.9,80,84.9z M80,80H48c-0.7,0-1.2,0.6-1.2,1.2
			c0,0.7,0.5,1.2,1.2,1.2h32c0.7,0,1.2-0.5,1.2-1.2C81.2,80.6,80.7,80,80,80z M80,75.1H48c-0.7,0-1.2,0.5-1.2,1.2
			c0,0.7,0.5,1.2,1.2,1.2h32c0.7,0,1.2-0.6,1.2-1.2C81.2,75.6,80.7,75.1,80,75.1z M102.1,75.1c-4.7,0-8.6,3.9-8.6,8.6
			s3.9,8.6,8.6,8.6c4.8,0,8.6-3.8,8.6-8.6S106.9,75.1,102.1,75.1z M102.1,87.4c-2,0-3.7-1.6-3.7-3.7c0-2,1.7-3.7,3.7-3.7
			c2,0,3.7,1.7,3.7,3.7C105.8,85.7,104.2,87.4,102.1,87.4z M102.1,75.1c-4.7,0-8.6,3.9-8.6,8.6s3.9,8.6,8.6,8.6
			c4.8,0,8.6-3.8,8.6-8.6S106.9,75.1,102.1,75.1z M102.1,87.4c-2,0-3.7-1.6-3.7-3.7c0-2,1.7-3.7,3.7-3.7c2,0,3.7,1.7,3.7,3.7
			C105.8,85.7,104.2,87.4,102.1,87.4z M80,80H48c-0.7,0-1.2,0.6-1.2,1.2c0,0.7,0.5,1.2,1.2,1.2h32c0.7,0,1.2-0.5,1.2-1.2
			C81.2,80.6,80.7,80,80,80z M80,75.1H48c-0.7,0-1.2,0.5-1.2,1.2c0,0.7,0.5,1.2,1.2,1.2h32c0.7,0,1.2-0.6,1.2-1.2
			C81.2,75.6,80.7,75.1,80,75.1z M80,84.9H48c-0.7,0-1.2,0.6-1.2,1.2c0,0.7,0.5,1.2,1.2,1.2h32c0.7,0,1.2-0.5,1.2-1.2
			C81.2,85.5,80.7,84.9,80,84.9z M25.8,75.1c-4.8,0-8.6,3.9-8.6,8.6s3.9,8.6,8.6,8.6s8.6-3.8,8.6-8.6S30.6,75.1,25.8,75.1z
			 M25.8,87.4c-2,0-3.7-1.6-3.7-3.7c0-2,1.6-3.7,3.7-3.7c2,0,3.7,1.7,3.7,3.7C29.5,85.7,27.9,87.4,25.8,87.4z M43.1,33.2L27,43.5
			l1.2,2l16.1-10.3L43.1,33.2z M43.1,33.2L27,43.5l1.2,2l16.1-10.3L43.1,33.2z"/>
		<path class="st3" d="M128,25.8v17.2c0,1.4-1.1,2.5-2.5,2.5h-2.4v4.9c0,1.4-1.1,2.5-2.5,2.5h-9.9l0.1-4.9h7.4v-2.5h-2.5
			c-1.4,0-2.4-1.1-2.4-2.5V25.8c0-1.4,1.1-2.5,2.4-2.5h9.8C126.9,23.4,128,24.5,128,25.8z"/>
		<path class="st3" d="M110.8,20.9l-0.1-4.9h9.9c1.4,0,2.5,1.1,2.5,2.5v6.8h-4.9v-4.3H110.8z"/>
		<path class="st3" d="M100.9,6.2H27.1c-5.4,0-9.9,4.4-9.9,9.8v49.2h5.1l12.1-7.4H96l10.1,7.4h4.6V16
			C110.8,10.6,106.4,6.2,100.9,6.2z M94.8,11.1c3.4,0,6.2,2.8,6.2,6.2s-2.8,6.1-6.2,6.1c-3.4,0-6.1-2.7-6.1-6.1S91.4,11.1,94.8,11.1
			z M52.9,13.5h24.6c3.4,0,3.7,1.7,3.7,3.7s-0.3,3.7-3.7,3.7H52.9c-3.4,0-3.7-1.6-3.7-3.7S49.5,13.5,52.9,13.5z M35.7,11.1
			c3.4,0,6.1,2.8,6.1,6.2s-2.7,6.1-6.1,6.1c-3.4,0-6.2-2.7-6.2-6.1S32.3,11.1,35.7,11.1z M61.5,52.9H24.6V38.7l1.2,1.9l16.1-10.3
			l-1.2-2l-16,10.3V28.3h36.9V52.9z M103.4,52.9H78.8l9.9-4.9h12.3v-4.9H71.4V48h12.3l-9.9,4.9h-7.4V28.3h36.9V52.9z"/>
	</g>
	<g id="train">
		<g>
			<path class="st2" d="M33.3,120l-5.3,5.3h72l-5.3-5.3H33.3z M26.7,82.7c2.2,0,4-1.8,4-4c0-2.2-1.8-4-4-4c-2.2,0-4,1.8-4,4
				C22.7,80.9,24.5,82.7,26.7,82.7z M36,117.3h56l-5.3-5.3H41.3L36,117.3z M37.3,82.7c2.2,0,4-1.8,4-4c0-2.2-1.8-4-4-4
				c-2.2,0-4,1.8-4,4C33.3,80.9,35.1,82.7,37.3,82.7z M96,74.7c-2.2,0-4,1.8-4,4c0,2.2,1.8,4,4,4s4-1.8,4-4
				C100,76.5,98.2,74.7,96,74.7z M26.6,45.3L44,34.2L42.7,32L25.3,43.2L26.6,45.3z M94.7,101.3h16V10.7C110.7,4.8,105.9,0,100,0
				H22.7C16.8,0,12,4.8,12,10.7v90.7h21.3L9.3,128H20l24-26.7h40l24.5,26.6l10.1,0L94.7,101.3z M46.7,5.3H76c2.9,0,5.3,2.4,5.3,5.3
				c0,2.9-2.4,5.3-5.3,5.3H46.7c-2.9,0-5.3-2.4-5.3-5.3C41.3,7.7,43.7,5.3,46.7,5.3z M44,85.3H20V72h24V85.3z M57.3,56H22.7V37.9
				L24,40l17.4-11.2L40,26.7L22.7,37.8V26.7h34.7V56z M65.3,26.7H100V56H65.3V26.7z M78.7,85.3V72h24v13.3H78.7z M85.3,74.7
				c-2.2,0-4,1.8-4,4c0,2.2,1.8,4,4,4c2.2,0,4-1.8,4-4C89.3,76.5,87.5,74.7,85.3,74.7z M47.3,104l-4.7,5.3h42.3l-5.3-5.3H47.3z"/>
		</g>
	</g>
	<g id="plane_1_" class="st0">
		<g id="icon_14_" class="st1">
			<path class="st2" d="M64.5,63.8l-5.1,3l0.6,1l5.1-3L64.5,63.8z M99,83c-1,0-1.8,0.8-1.8,1.8c0,1,0.8,1.8,1.8,1.8
				c1,0,1.8-0.8,1.8-1.8C100.7,83.8,99.9,83,99,83z M115,81c-1.1,0-2,0.9-2,2c0,1.1,0.9,2,2,2s2-0.9,2-2C116.9,81.9,116.1,81,115,81
				z M99,83c-1,0-1.8,0.8-1.8,1.8c0,1,0.8,1.8,1.8,1.8c1,0,1.8-0.8,1.8-1.8C100.7,83.8,99.9,83,99,83z M64.5,63.8l-5.1,3l0.6,1
				l5.1-3L64.5,63.8z M62.1,62.6l-5.1,3l0.6,1l5.1-3L62.1,62.6z M27.9,83c-1,0-1.8,0.8-1.8,1.8c0,1,0.8,1.8,1.8,1.8s1.8-0.8,1.8-1.8
				C29.6,83.8,28.8,83,27.9,83z M13,81c-1.1,0-2,0.9-2,2c0,1.1,0.9,2,2,2s2-0.9,2-2C15,81.9,14.1,81,13,81z M125.7,70.2
				c0,0-23.2,5-49.5,6.4c0,0-0.4,0.1-0.4,0.1c0,0-6.1,5.1-12.5,5.1c-6.5,0-13.8-5-14.1-5.2c0,0-0.5,0-0.4-0.1
				c-25-1.5-46.4-6.3-46.4-6.3C1,70.2,0,71.3,0,72.6C0,73.9,1,75,2.3,75c0,0,4,0.9,10.1,2.1c-3,0.3-5.3,2.8-5.3,5.9
				c0,3.3,2.7,5.9,5.9,5.9S19,86.2,19,83c0-2.2-1.3-4.2-3.1-5.2c3.1,0.6,6.6,1.3,10.3,1.9c-2.1,0.7-3.6,2.7-3.6,5
				c0,3,2.4,5.3,5.3,5.3c3,0,5.3-2.4,5.3-5.3c0-1.7-0.8-3.2-2-4.1c6.6,1.1,13.6,2.1,20,2.8c0,0,0.1,0,0.1,0c0.2,0,0.4,0,0.4,0
				c2.5,4.1,6.4,6.7,10.9,6.7c4.4,0,8.3-2.6,10.8-6.6c0.3,0,0.5,0.1,0.5,0c6.9-0.6,14.6-1.7,21.9-2.9c-1.2,1-2,2.5-2,4.1
				c0,3,2.4,5.3,5.3,5.3s5.3-2.4,5.3-5.3c0-2.3-1.5-4.2-3.5-5c4.2-0.7,8.2-1.4,11.6-2.1c-2,1-3.4,3-3.4,5.3c0,3.3,2.7,5.9,5.9,5.9
				s5.9-2.7,5.9-5.9c0-3.2-2.5-5.7-5.6-5.9c6.3-1.2,10.4-2.1,10.4-2.1c1.3,0,2.3-1.1,2.3-2.4C128,71.3,127,70.2,125.7,70.2z M16,83
				c0,1.6-1.3,3-3,3s-3-1.3-3-3s1.3-3,3-3S16,81.3,16,83z M27.9,87.4c-1.5,0-2.7-1.2-2.7-2.7c0-1.5,1.2-2.7,2.7-2.7s2.7,1.2,2.7,2.7
				C30.5,86.2,29.3,87.4,27.9,87.4z M101.6,84.7c0,1.5-1.2,2.7-2.7,2.7s-2.7-1.2-2.7-2.7c0-1.5,1.2-2.7,2.7-2.7
				S101.6,83.3,101.6,84.7z M117.9,83c0,1.6-1.3,3-3,3c-1.6,0-3-1.3-3-3s1.3-3,3-3C116.6,80,117.9,81.3,117.9,83z M113,83
				c0,1.1,0.9,2,2,2s2-0.9,2-2c0-1.1-0.9-2-2-2S113,81.9,113,83z M97.2,84.7c0,1,0.8,1.8,1.8,1.8c1,0,1.8-0.8,1.8-1.8
				c0-1-0.8-1.8-1.8-1.8C98,83,97.2,83.8,97.2,84.7z M35.7,60.6c0,0,9.8,0.7,16.5,1.2c0,0,0.4,0,0.3,0.2c-2.3,3-3.6,7-3.6,11.4
				c0,0.7,0-0.6,0.1,0.1c0,0,7.2,5.9,13.8,5.9c6.4,0,13.1-5.9,13.1-5.9c0.1-0.7,0.1,0.6,0.1-0.1c0-4.3-1.3-8.3-3.5-11.2
				c-0.2-0.2-0.5-0.2,0.1-0.3c6.6-0.5,17.4-1.2,17.4-1.2c0.9,0,1.6-0.7,1.6-1.6c0-0.9-0.7-1.6-1.6-1.6c0,0-15.1,1.1-20.6,1.5
				c-0.1-0.2-0.2,0-0.4-0.2c-1.3-0.9-2.8-1.5-4.3-1.9c0.3,0,0.5,0,0.5,0l-0.8-17.4c0-0.9-0.7-1.6-1.6-1.6c-0.9,0-1.6,0.7-1.6,1.6
				l-0.8,17.3c-1.7,0.3-3.2,1-4.6,1.9c-0.1,0.1-0.2,0-0.5,0c-6.1,0-19.7-1.4-19.7-1.4c-0.9,0-1.6,0.7-1.6,1.6
				C34.1,59.9,34.8,60.6,35.7,60.6z M55.7,64c1.1-1.1,4.4-2.5,7.1-2.4c2.9,0.1,5.2,1.7,5.9,2.4v2.4c0,3.5-6.7,3.5-7.1,3.5
				c0,0-5.9,0.1-5.9-3.5V64z M59.9,67.8l5.1-3l-0.6-1l-5.1,3L59.9,67.8z M62.7,63.6l-0.6-1l-5.1,3l0.6,1L62.7,63.6z M27.9,83
				c-1,0-1.8,0.8-1.8,1.8c0,1,0.8,1.8,1.8,1.8s1.8-0.8,1.8-1.8C29.6,83.8,28.8,83,27.9,83z M13,81c-1.1,0-2,0.9-2,2c0,1.1,0.9,2,2,2
				s2-0.9,2-2C15,81.9,14.1,81,13,81z M115,81c-1.1,0-2,0.9-2,2c0,1.1,0.9,2,2,2s2-0.9,2-2C116.9,81.9,116.1,81,115,81z M62.1,62.6
				l-5.1,3l0.6,1l5.1-3L62.1,62.6z M27.9,83c-1,0-1.8,0.8-1.8,1.8c0,1,0.8,1.8,1.8,1.8s1.8-0.8,1.8-1.8C29.6,83.8,28.8,83,27.9,83z
				 M13,81c-1.1,0-2,0.9-2,2c0,1.1,0.9,2,2,2s2-0.9,2-2C15,81.9,14.1,81,13,81z"/>
		</g>
	</g>
</g>
</svg>
